<svg width="512" height="512" viewBox="0 0 512 512" fill="none" xmlns="http://www.w3.org/2000/svg">
	<g clip-path="url(#clip0_1529_2)">
		<rect width="512" height="512" fill="#3F91F0"/>
		<g filter="url(#filter0_d_1529_2)">
			<path d="M125.1 375.674C110.745 371.621 99.9173 364.934 92.618 355.612C85.3998 346.372 81.7908 334.132 81.7908 318.893V294.698C81.7908 275.001 73.1938 265.152 56 265.152V247.522C73.1938 247.522 81.7908 237.714 81.7908 218.098V192.808C81.953 177.975 85.562 166.019 92.618 156.94C99.7551 147.781 110.582 141.134 125.1 137L129.723 150.982C112.772 156.413 104.297 170.558 104.297 193.416V217.977C104.297 236.377 97.5247 249.184 83.9805 256.398C97.5247 263.693 104.297 276.622 104.297 295.184V320.231C104.54 342.521 113.015 356.342 129.723 361.692L125.1 375.674Z" fill="white"/>
			<path d="M382.156 361.692C398.62 356.423 407.135 343.008 407.703 321.447V294.698C407.703 275.973 415.043 263.207 429.723 256.398C415.043 249.751 407.703 236.985 407.703 218.098V193.416C407.703 170.558 399.228 156.413 382.277 150.982L386.9 137C401.255 141.053 412.042 147.659 419.26 156.819C426.478 165.897 430.128 177.934 430.209 192.93V218.463C430.209 237.836 438.806 247.522 456 247.522V265.152C438.806 265.152 430.209 275.001 430.209 294.698V319.258C430.209 334.497 426.519 346.696 419.139 355.855C411.839 365.015 401.093 371.621 386.9 375.674L382.156 361.692Z" fill="white"/>
			<path d="M201.856 212.185V206.402L231.449 203.298L251.414 198.079L253.396 202.17V226.432H253.962C255.85 222.671 258.163 219.003 260.9 215.429C263.638 211.856 266.611 208.706 269.821 205.978C273.124 203.157 276.617 200.9 280.298 199.208C283.98 197.515 287.708 196.668 291.484 196.668C298.847 196.668 304.511 198.643 308.475 202.593C312.534 206.449 314.564 211.621 314.564 218.11C314.564 220.837 314.139 223.376 313.289 225.727C312.44 227.984 311.213 229.959 309.608 231.651C308.098 233.344 306.21 234.708 303.944 235.742C301.773 236.683 299.366 237.153 296.723 237.153C293.891 237.153 291.343 236.683 289.077 235.742C286.812 234.802 284.877 233.532 283.272 231.934C281.762 230.335 280.582 228.501 279.732 226.432C278.882 224.269 278.458 221.965 278.458 219.52C278.458 214.536 279.496 210.869 281.573 208.518V207.671C278.175 208.423 274.823 210.21 271.52 213.031C268.31 215.853 265.384 219.708 262.741 224.598C260.098 229.394 257.974 235.225 256.369 242.09C254.765 248.861 253.962 256.525 253.962 265.083V335.331L268.546 336.741V342.525H204.688V336.741L219.272 335.331V212.185H201.856Z" fill="white"/>
		</g>
	</g>
	<defs>
		<filter id="filter0_d_1529_2" x="52" y="131" width="424" height="262.674" filterUnits="userSpaceOnUse" color-interpolation-filters="sRGB">
			<feFlood flood-opacity="0" result="BackgroundImageFix"/>
			<feColorMatrix in="SourceAlpha" type="matrix" values="0 0 0 0 0 0 0 0 0 0 0 0 0 0 0 0 0 0 127 0" result="hardAlpha"/>
			<feOffset dx="8" dy="6"/>
			<feGaussianBlur stdDeviation="6"/>
			<feComposite in2="hardAlpha" operator="out"/>
			<feColorMatrix type="matrix" values="0 0 0 0 0 0 0 0 0 0 0 0 0 0 0 0 0 0 0.075 0"/>
			<feBlend mode="normal" in2="BackgroundImageFix" result="effect1_dropShadow_1529_2"/>
			<feBlend mode="normal" in="SourceGraphic" in2="effect1_dropShadow_1529_2" result="shape"/>
		</filter>
		<clipPath id="clip0_1529_2">
			<rect width="512" height="512" fill="white"/>
		</clipPath>
	</defs>
</svg>
