<svg width="1262.2" xmlns="http://www.w3.org/2000/svg" height="213.318" id="screenshot-d12e593a-de33-802f-8007-4d9d40265d4f" viewBox="0 0 1262.2 213.318" xmlns:xlink="http://www.w3.org/1999/xlink" fill="none" version="1.1"><g id="shape-d12e593a-de33-802f-8007-4d9d40265d4f" width="1263" height="214" rx="0" ry="0" style="fill: rgb(0, 0, 0);"><g id="shape-d12e593a-de33-802f-8007-4d9d402a7acd"><g class="fills" id="fills-d12e593a-de33-802f-8007-4d9d402a7acd"><path d="M0,210.16015625L0,69.765625L49.955078125,69.765625L49.955078125,210.16015625L0,210.16015625ZM49.955078125,133.7890625L27.5625,114.841796875C33.11328125,98.955078125,40.482421875,86.9921875,49.66796875,78.953125C58.85546875,70.9140625,70.818359375,66.89453125,85.556640625,66.89453125C92.255859375,66.89453125,97.998046875,67.755859375,102.783203125,69.478515625C107.759765625,71.201171875,111.970703125,73.880859375,115.416015625,77.517578125L86.41796875,116.27734375C84.88671875,114.5546875,82.685546875,113.21484375,79.814453125,112.2578125C77.134765625,111.109375,74.072265625,110.53515625,70.626953125,110.53515625C64.119140625,110.53515625,59.046875,112.544921875,55.41015625,116.564453125C51.7734375,120.392578125,49.955078125,126.134765625,49.955078125,133.7890625Z" style="fill: rgb(255, 193, 0);"/></g></g><g id="shape-d12e593a-de33-802f-8007-4d9d402bfd2e"><g class="fills" id="fills-d12e593a-de33-802f-8007-4d9d402bfd2e"><path d="M179.970703125,213.03125C166.955078125,213.03125,155.376953125,209.873046875,145.232421875,203.556640625C135.087890625,197.240234375,127.14453125,188.626953125,121.40234375,177.716796875C115.66015625,166.615234375,112.7890625,154.078125,112.7890625,140.10546875C112.7890625,125.943359375,115.66015625,113.310546875,121.40234375,102.208984375C127.14453125,91.107421875,135.087890625,82.494140625,145.232421875,76.369140625C155.376953125,70.052734375,166.955078125,66.89453125,179.970703125,66.89453125C188.775390625,66.89453125,196.814453125,68.521484375,204.087890625,71.775390625C211.361328125,74.837890625,217.294921875,79.240234375,221.888671875,84.982421875C226.673828125,90.724609375,229.544921875,97.232421875,230.501953125,104.505859375L230.501953125,175.1328125C229.544921875,182.59765625,226.673828125,189.201171875,221.888671875,194.943359375C217.294921875,200.494140625,211.361328125,204.896484375,204.087890625,208.150390625C196.814453125,211.404296875,188.775390625,213.03125,179.970703125,213.03125ZM190.59375,168.529296875C198.82421875,168.529296875,205.427734375,165.849609375,210.404296875,160.490234375C215.572265625,155.1328125,218.15625,148.240234375,218.15625,139.818359375C218.15625,134.26953125,217.0078125,129.388671875,214.7109375,125.177734375C212.4140625,120.966796875,209.16015625,117.6171875,204.94921875,115.12890625C200.9296875,112.640625,196.240234375,111.396484375,190.880859375,111.396484375C185.521484375,111.396484375,180.736328125,112.640625,176.525390625,115.12890625C172.5078125,117.6171875,169.25390625,121.0625,166.763671875,125.46484375C164.46875,129.67578125,163.318359375,134.4609375,163.318359375,139.818359375C163.318359375,145.369140625,164.46875,150.34765625,166.763671875,154.748046875C169.060546875,158.9609375,172.314453125,162.30859375,176.525390625,164.796875C180.736328125,167.28515625,185.42578125,168.529296875,190.59375,168.529296875ZM216.146484375,210.16015625L216.146484375,172.548828125L223.32421875,138.09765625L216.146484375,104.21875L216.146484375,69.765625L265.240234375,69.765625L265.240234375,210.16015625L216.146484375,210.16015625Z" style="fill: rgb(255, 193, 0);"/></g></g><g id="shape-d12e593a-de33-802f-8007-4d9d402c65ab"><g class="fills" id="fills-d12e593a-de33-802f-8007-4d9d402c65ab"><path d="M336.59765625,210.16015625L279.46484375,69.765625L332.865234375,69.765625L369.326171875,188.052734375L348.943359375,188.052734375L385.1171875,69.765625L437.9453125,69.765625L380.810546875,210.16015625L336.59765625,210.16015625Z" style="fill: rgb(255, 193, 0);"/></g></g><g id="shape-d12e593a-de33-802f-8007-4d9d402d391d"><g class="fills" id="fills-d12e593a-de33-802f-8007-4d9d402d391d"><path d="M451.95703125,210.16015625L451.95703125,69.765625L502.19921875,69.765625L502.19921875,210.16015625L451.95703125,210.16015625ZM476.935546875,53.400390625C469.470703125,53.400390625,463.25,50.912109375,458.2734375,45.9375C453.296875,40.76953125,450.80859375,34.357421875,450.80859375,26.701171875C450.80859375,19.236328125,453.296875,12.919921875,458.2734375,7.751953125C463.25,2.583984375,469.470703125,0,476.935546875,0C484.78125,0,491.099609375,2.583984375,495.884765625,7.751953125C500.859375,12.919921875,503.34765625,19.236328125,503.34765625,26.701171875C503.34765625,34.357421875,500.859375,40.76953125,495.884765625,45.9375C491.099609375,50.912109375,484.78125,53.400390625,476.935546875,53.400390625Z" style="fill: rgb(255, 193, 0);"/></g></g><g id="shape-d12e593a-de33-802f-8007-4d9d402e628e"><g class="fills" id="fills-d12e593a-de33-802f-8007-4d9d402e628e"><path d="M455,210.16015625L455,69.765625L504.955078125,69.765625L504.955078125,210.16015625L455,210.16015625ZM543.140625,210.16015625L543.140625,128.908203125C543.140625,122.9765625,541.322265625,118.3828125,537.685546875,115.12890625C534.048828125,111.68359375,529.55078125,109.9609375,524.19140625,109.9609375C520.36328125,109.9609375,517.013671875,110.7265625,514.142578125,112.2578125C511.271484375,113.7890625,508.974609375,115.990234375,507.25390625,118.861328125C505.72265625,121.5390625,504.955078125,124.890625,504.955078125,128.908203125L485.43359375,121.158203125C485.43359375,109.865234375,487.921875,100.19921875,492.8984375,92.16015625C497.873046875,84.12109375,504.572265625,77.900390625,512.994140625,73.498046875C521.41796875,69.095703125,530.986328125,66.89453125,541.705078125,66.89453125C551.275390625,66.89453125,559.888671875,69.19140625,567.544921875,73.78515625C575.392578125,78.1875,581.61328125,84.408203125,586.205078125,92.447265625C590.80078125,100.486328125,593.09765625,109.9609375,593.09765625,120.87109375L593.09765625,210.16015625L543.140625,210.16015625ZM631.28125,210.16015625L631.28125,128.908203125C631.28125,122.9765625,629.462890625,118.3828125,625.826171875,115.12890625C622.189453125,111.68359375,617.69140625,109.9609375,612.33203125,109.9609375C608.6953125,109.9609375,605.34765625,110.7265625,602.283203125,112.2578125C599.412109375,113.7890625,597.115234375,115.990234375,595.39453125,118.861328125C593.861328125,121.5390625,593.09765625,124.890625,593.09765625,128.908203125L563.8125,127.474609375C564.1953125,114.841796875,566.970703125,104.02734375,572.138671875,95.03125C577.306640625,86.03515625,584.388671875,79.14453125,593.384765625,74.359375C602.5703125,69.3828125,612.90625,66.89453125,624.390625,66.89453125C635.30078125,66.89453125,645.0625,69.19140625,653.67578125,73.78515625C662.2890625,78.37890625,668.98828125,85.078125,673.7734375,93.8828125C678.75,102.49609375,681.236328125,112.83203125,681.236328125,124.890625L681.236328125,210.16015625L631.28125,210.16015625Z" style="fill: rgb(255, 193, 0);"/></g></g><g id="shape-d12e593a-de33-802f-8007-4d9d402f940a"><g class="fills" id="fills-d12e593a-de33-802f-8007-4d9d402f940a"><path d="M778.251953125,213.318359375C762.556640625,213.318359375,748.6796875,210.255859375,736.62109375,204.130859375C724.5625,197.814453125,715.08984375,189.10546875,708.197265625,178.00390625C701.30859375,166.90234375,697.86328125,154.17578125,697.86328125,139.818359375C697.86328125,125.65625,701.212890625,113.119140625,707.91015625,102.208984375C714.609375,91.107421875,723.701171875,82.3984375,735.185546875,76.08203125C746.861328125,69.57421875,759.97265625,66.3203125,774.51953125,66.3203125C788.68359375,66.3203125,801.220703125,69.3828125,812.130859375,75.5078125C823.23046875,81.44140625,831.84375,89.767578125,837.96875,100.486328125C844.28515625,111.013671875,847.443359375,123.072265625,847.443359375,136.66015625C847.443359375,139.53125,847.251953125,142.498046875,846.869140625,145.560546875C846.677734375,148.431640625,846.103515625,151.78125,845.146484375,155.609375L721.404296875,156.18359375L721.404296875,124.029296875L825.3359375,123.16796875L802.94140625,137.234375C802.75,129.388671875,801.603515625,122.9765625,799.49609375,118C797.392578125,112.83203125,794.328125,108.908203125,790.310546875,106.228515625C786.2890625,103.548828125,781.21875,102.208984375,775.09375,102.208984375C768.77734375,102.208984375,763.322265625,103.740234375,758.728515625,106.802734375C754.134765625,109.865234375,750.59375,114.171875,748.10546875,119.72265625C745.6171875,125.2734375,744.373046875,131.97265625,744.373046875,139.818359375C744.373046875,147.857421875,745.712890625,154.748046875,748.392578125,160.490234375C751.072265625,166.041015625,754.900390625,170.251953125,759.876953125,173.123046875C764.853515625,175.994140625,770.978515625,177.4296875,778.251953125,177.4296875C785.142578125,177.4296875,791.171875,176.28125,796.33984375,173.984375C801.697265625,171.6875,806.482421875,168.146484375,810.693359375,163.361328125L836.8203125,189.48828125C829.9296875,197.3359375,821.5078125,203.26953125,811.556640625,207.2890625C801.794921875,211.30859375,790.693359375,213.318359375,778.251953125,213.318359375Z" style="fill: rgb(255, 193, 0);"/></g></g><g id="shape-d12e593a-de33-802f-8007-4d9d40309b28"><g class="fills" id="fills-d12e593a-de33-802f-8007-4d9d40309b28"><path d="M926.6015625,213.03125C913.01171875,213.03125,901.048828125,209.873046875,890.712890625,203.556640625C880.376953125,197.240234375,872.2421875,188.626953125,866.30859375,177.716796875C860.56640625,166.615234375,857.6953125,154.078125,857.6953125,140.10546875C857.6953125,125.943359375,860.56640625,113.310546875,866.30859375,102.208984375C872.2421875,91.107421875,880.28125,82.494140625,890.42578125,76.369140625C900.76171875,70.052734375,912.8203125,66.89453125,926.6015625,66.89453125C935.40625,66.89453125,943.63671875,68.521484375,951.29296875,71.775390625C958.947265625,74.837890625,965.359375,79.240234375,970.52734375,84.982421875C975.6953125,90.724609375,978.7578125,97.232421875,979.71484375,104.505859375L979.71484375,173.123046875C978.7578125,180.396484375,975.6953125,187.095703125,970.52734375,193.220703125C965.359375,199.345703125,958.947265625,204.2265625,951.29296875,207.86328125C943.63671875,211.30859375,935.40625,213.03125,926.6015625,213.03125ZM935.5,168.529296875C941.052734375,168.529296875,945.837890625,167.380859375,949.85546875,165.083984375C953.875,162.595703125,957.033203125,159.24609375,959.330078125,155.03515625C961.818359375,150.634765625,963.0625,145.560546875,963.0625,139.818359375C963.0625,134.26953125,961.9140625,129.388671875,959.6171875,125.177734375C957.3203125,120.966796875,954.06640625,117.6171875,949.85546875,115.12890625C945.837890625,112.640625,941.1484375,111.396484375,935.787109375,111.396484375C930.4296875,111.396484375,925.64453125,112.640625,921.43359375,115.12890625C917.4140625,117.6171875,914.16015625,121.0625,911.671875,125.46484375C909.375,129.67578125,908.2265625,134.4609375,908.2265625,139.818359375C908.2265625,145.369140625,909.375,150.34765625,911.671875,154.748046875C913.96875,158.9609375,917.22265625,162.30859375,921.43359375,164.796875C925.64453125,167.28515625,930.33203125,168.529296875,935.5,168.529296875ZM1010.150390625,210.16015625L961.052734375,210.16015625L961.052734375,172.548828125L968.23046875,138.09765625L960.19140625,104.21875L960.19140625,0.861328125L1010.150390625,0.861328125L1010.150390625,210.16015625Z" style="fill: rgb(255, 193, 0);"/></g></g><g id="shape-d12e593a-de33-802f-8007-4d9d4032327b"><g class="fills" id="fills-d12e593a-de33-802f-8007-4d9d4032327b"><path d="M1039.009765625,210.16015625L1039.009765625,69.765625L1089.259765625,69.765625L1089.259765625,210.16015625L1039.009765625,210.16015625ZM1063.990234375,53.400390625C1056.529296875,53.400390625,1050.310546875,50.912109375,1045.330078125,45.9375C1040.349609375,40.76953125,1037.859375,34.357421875,1037.859375,26.701171875C1037.859375,19.236328125,1040.349609375,12.919921875,1045.330078125,7.751953125C1050.310546875,2.583984375,1056.529296875,0,1063.990234375,0C1071.83984375,0,1078.16015625,2.583984375,1082.939453125,7.751953125C1087.919921875,12.919921875,1090.400390625,19.236328125,1090.400390625,26.701171875C1090.400390625,34.357421875,1087.919921875,40.76953125,1082.939453125,45.9375C1078.16015625,50.912109375,1071.83984375,53.400390625,1063.990234375,53.400390625Z" style="fill: rgb(255, 193, 0);"/></g></g><g id="shape-d12e593a-de33-802f-8007-4d9d4032fbdd"><g class="fills" id="fills-d12e593a-de33-802f-8007-4d9d4032fbdd"><path d="M1176.939453125,213.03125C1163.919921875,213.03125,1152.33984375,209.873046875,1142.19921875,203.556640625C1132.05078125,197.240234375,1124.109375,188.626953125,1118.369140625,177.716796875C1112.619140625,166.615234375,1109.75,154.078125,1109.75,140.10546875C1109.75,125.943359375,1112.619140625,113.310546875,1118.369140625,102.208984375C1124.109375,91.107421875,1132.05078125,82.494140625,1142.19921875,76.369140625C1152.33984375,70.052734375,1163.919921875,66.89453125,1176.939453125,66.89453125C1185.740234375,66.89453125,1193.779296875,68.521484375,1201.05078125,71.775390625C1208.3203125,74.837890625,1214.259765625,79.240234375,1218.849609375,84.982421875C1223.640625,90.724609375,1226.509765625,97.232421875,1227.470703125,104.505859375L1227.470703125,175.1328125C1226.509765625,182.59765625,1223.640625,189.201171875,1218.849609375,194.943359375C1214.259765625,200.494140625,1208.3203125,204.896484375,1201.05078125,208.150390625C1193.779296875,211.404296875,1185.740234375,213.03125,1176.939453125,213.03125ZM1187.560546875,168.529296875C1195.7890625,168.529296875,1202.390625,165.849609375,1207.369140625,160.490234375C1212.5390625,155.1328125,1215.119140625,148.240234375,1215.119140625,139.818359375C1215.119140625,134.26953125,1213.970703125,129.388671875,1211.669921875,125.177734375C1209.380859375,120.966796875,1206.119140625,117.6171875,1201.91015625,115.12890625C1197.890625,112.640625,1193.19921875,111.396484375,1187.83984375,111.396484375C1182.490234375,111.396484375,1177.69921875,112.640625,1173.490234375,115.12890625C1169.470703125,117.6171875,1166.220703125,121.0625,1163.73046875,125.46484375C1161.4296875,129.67578125,1160.279296875,134.4609375,1160.279296875,139.818359375C1160.279296875,145.369140625,1161.4296875,150.34765625,1163.73046875,154.748046875C1166.029296875,158.9609375,1169.279296875,162.30859375,1173.490234375,164.796875C1177.69921875,167.28515625,1182.390625,168.529296875,1187.560546875,168.529296875ZM1213.109375,210.16015625L1213.109375,172.548828125L1220.2890625,138.09765625L1213.109375,104.21875L1213.109375,69.765625L1262.19921875,69.765625L1262.19921875,210.16015625L1213.109375,210.16015625Z" style="fill: rgb(255, 193, 0);"/></g></g></g></svg>