<svg width="512" xmlns="http://www.w3.org/2000/svg" height="512" id="screenshot-e5607ad7-23a7-80b4-8007-33f13659c543" viewBox="0 0 512 512" fill="none" version="1.1"><g id="shape-e5607ad7-23a7-80b4-8007-33f13659c543"><defs><clipPath id="frame-clip-e5607ad7-23a7-80b4-8007-33f13659c543-render-1" class="frame-clip frame-clip-def"><rect rx="0" ry="0" x="0" y="0" width="512" height="512" transform="matrix(1.000000, 0.000000, 0.000000, 1.000000, 0.000000, 0.000000)"/></clipPath></defs><g class="frame-container-wrapper"><g class="frame-container-blur"><g class="frame-container-shadows"><g clip-path="url(#frame-clip-e5607ad7-23a7-80b4-8007-33f13659c543-render-1)" fill="none"><g class="fills" id="fills-e5607ad7-23a7-80b4-8007-33f13659c543"><rect width="512" height="512" class="frame-background" x="0" transform="matrix(1.000000, 0.000000, 0.000000, 1.000000, 0.000000, 0.000000)" style="fill: rgb(16, 16, 16); fill-opacity: 1;" ry="0" rx="0" y="0"/></g><g class="frame-children">
	<g id="shape-e5607ad7-23a7-80b4-8007-33f15954951b" style="fill: rgb(0, 0, 0);"><g id="shape-e5607ad7-23a7-80b4-8007-33f159551505" style="display: none;"><g class="fills" id="fills-e5607ad7-23a7-80b4-8007-33f159551505"><rect width="332" height="379" x="90" transform="matrix(1.000000, 0.000000, 0.000000, 1.000000, 0.000000, 0.000000)" style="fill: none;" ry="0" fill="none" rx="0" y="67"/></g></g><g id="shape-e5607ad7-23a7-80b4-8007-33f159555bf5"><g class="fills" id="fills-e5607ad7-23a7-80b4-8007-33f159555bf5"><path d="M357.674072265625,182.6494140625L255.74755859375,122.98141479492188L153.82122802734375,182.6494140625L105.98599243164062,154.64218139648438L255.74755859375,67L405.528076171875,154.64218139648438L357.674072265625,182.6494140625Z" style="fill: rgb(255, 193, 0);"/></g></g><g id="shape-e5607ad7-23a7-80b4-8007-33f159555bf6"><g class="fills" id="fills-e5607ad7-23a7-80b4-8007-33f159555bf6"><path d="M421.45037841796875,357.9912109375L271.68853759765625,445.6048583984375L271.68853759765625,389.6234130859375L373.66229248046875,329.9552001953125L373.66229248046875,210.60995483398438L421.4976806640625,182.63525390625L421.4976806640625,357.9005126953125L421.45037841796875,357.9912109375Z" style="fill: rgb(255, 193, 0);"/></g></g><g id="shape-e5607ad7-23a7-80b4-8007-33f159559be9"><g class="fills" id="fills-e5607ad7-23a7-80b4-8007-33f159559be9"><path d="M137.84942626953125,210.60995483398438L137.84942626953125,329.9552001953125L239.79412841796875,389.58990478515625L239.79412841796875,445.6048583984375L90,357.962646484375L90,182.63525390625L137.84942626953125,210.60995483398438Z" style="fill: rgb(255, 193, 0);"/></g></g></g></g></g></g></g></g></g></svg>
